<svg width="580" height="945" viewBox="0 0 580 945" fill="none" xmlns="http://www.w3.org/2000/svg">
<path d="M283.325 8.30029C221.824 38.1907 197.124 65.0821 190.324 109.868C187.924 125.163 188.624 143.857 191.524 143.857C192.324 143.857 192.724 144.257 192.424 144.657C192.124 145.156 193.324 146.356 195.124 147.456C202.024 151.554 221.524 148.355 235.624 140.758C254.525 130.661 271.025 112.767 281.425 91.2737C286.225 81.3769 293.025 62.6829 292.425 61.1833C292.125 60.4836 292.425 59.8837 292.925 59.8837C293.525 59.8837 293.825 58.984 293.525 57.8844C293.225 56.6848 293.425 56.085 294.025 56.4848C294.625 56.8847 294.825 56.3849 294.325 54.9853C293.925 53.6857 294.125 52.886 294.825 52.886C295.525 52.886 295.725 52.0862 295.325 50.7867C294.825 49.3871 294.925 48.8873 295.725 49.2871C296.325 49.687 296.625 49.3871 296.225 48.5874C295.925 47.7876 296.425 44.2888 297.325 40.7899C299.225 33.4922 304.726 3.60179 304.326 3.10195C304.126 2.90202 302.925 3.30189 301.625 3.9017C299.725 4.90138 299.525 4.90137 300.625 3.80173C301.925 2.40218 302.225 -0.0970256 301.125 0.00294231C300.625 0.00294231 292.725 3.70176 283.325 8.30029Z" fill="#0081C8"/>
<path d="M133.123 45.5884C115.823 79.3775 108.623 101.77 106.323 128.862C105.823 135.46 107.023 151.554 108.423 157.353C108.823 159.052 108.723 159.052 107.823 157.852C106.623 156.153 107.123 160.152 109.423 170.748C113.423 188.742 125.723 209.636 135.123 214.534C141.423 217.733 150.023 213.335 158.323 202.738C166.224 192.741 174.724 170.848 175.124 159.652C175.224 157.153 175.524 155.153 175.824 155.353C176.624 155.853 177.324 144.457 177.224 130.361C177.224 112.767 173.324 94.9725 164.623 72.8796C160.923 63.4826 143.723 27.894 142.823 27.894C142.523 27.894 138.123 35.8915 133.123 45.5884Z" fill="#FCB131"/>
<path d="M266.325 131.261C232.424 142.557 214.824 151.255 195.323 166.35C169.623 186.243 156.723 210.536 155.123 242.026C154.523 253.122 154.623 253.822 156.423 253.922C157.423 253.922 157.823 254.222 157.223 254.422C155.523 255.121 156.723 259.42 159.323 262.219C162.723 265.818 168.823 267.117 178.823 266.318C183.523 265.918 188.223 265.118 189.323 264.618C191.123 263.719 191.123 263.719 189.823 265.018C189.023 265.818 184.523 269.417 179.823 273.016C144.423 300.307 125.422 326.398 119.922 355.789C117.622 367.785 118.522 404.373 121.222 409.572C123.322 413.57 127.823 415.97 133.423 415.97C139.023 415.97 143.223 414.57 154.123 409.072C174.823 398.875 183.823 390.378 192.823 372.684C196.224 366.086 200.124 357.688 201.424 353.99C205.324 343.693 210.024 323 209.224 319.501C208.924 317.901 209.024 316.802 209.424 317.101C209.924 317.401 210.324 316.002 210.424 314.002C210.424 311.903 211.224 303.906 212.124 296.108C213.024 288.311 213.824 277.314 213.924 271.616C214.024 260.62 214.924 252.522 216.024 253.022C217.324 253.622 229.724 243.725 236.524 236.427C248.024 224.331 257.524 209.036 266.125 188.843C273.225 172.048 277.125 159.352 276.525 155.253C276.125 152.854 277.125 147.856 279.725 138.859C281.825 131.661 283.225 125.863 282.925 125.963C282.625 125.963 275.125 128.362 266.325 131.261Z" fill="#EF3F59"/>
<path d="M70.6221 184.044C69.2221 188.043 67.522 193.041 66.822 195.14C66.222 197.14 65.322 198.639 64.822 198.339C64.422 198.039 62.822 202.938 61.3219 209.136C49.3218 259.32 52.3218 294.808 71.0221 323.299C76.1222 331.097 90.3224 346.292 91.6224 345.392C92.1224 345.092 95.3224 346.892 98.8225 349.391C102.323 351.79 105.723 353.79 106.323 353.79C108.123 353.79 117.923 338.095 121.823 328.898C128.523 313.203 129.323 309.104 129.323 290.81C129.223 273.415 128.623 269.417 123.223 254.521C118.523 241.126 107.723 221.832 96.5225 206.337C91.9224 199.939 77.1222 181.145 74.3221 178.046C73.3221 176.946 72.6221 178.246 70.6221 184.044Z" fill="#EF3F59"/>
<path d="M16.3203 313.702C16.7203 315.002 16.5203 316.501 15.8203 317.301C13.3202 320.4 17.7203 358.288 23.3204 381.581C24.7204 387.279 25.5204 392.477 25.1204 392.977C24.8204 393.677 25.0204 393.777 25.7204 393.377C26.6204 392.777 26.7204 393.377 26.2204 395.376C25.7204 397.276 25.8204 397.875 26.6204 397.376C27.3205 396.976 27.6205 397.176 27.2205 398.075C26.0204 401.374 36.9206 426.166 44.6207 437.463C61.921 462.955 95.8215 482.648 107.122 473.751C110.022 471.452 113.422 463.554 112.322 461.655C111.722 460.855 111.922 460.655 112.822 461.255C113.822 461.855 114.022 461.455 113.522 459.756C113.222 458.456 113.522 453.158 114.322 447.859C119.222 415.67 110.422 388.278 86.9213 362.687C74.8212 349.391 53.9209 333.496 30.7205 319.8C16.0203 311.103 15.3203 310.803 16.3203 313.702Z" fill="#0081C8"/>
<path d="M196.224 377.982C167.523 407.472 150.723 433.764 142.523 462.255C139.923 471.252 139.423 502.942 141.523 517.637C143.723 532.832 145.423 537.631 150.423 542.629C154.723 546.928 154.823 546.928 160.723 546.528C165.623 546.228 167.723 545.328 173.423 541.629C182.024 536.031 194.224 524.135 199.824 515.838C202.224 512.339 205.624 505.941 207.424 501.742C211.024 493.445 216.324 473.451 215.424 471.252C215.224 470.552 215.624 465.454 216.524 460.056C217.624 452.758 217.824 445.76 217.424 432.264C216.924 413.57 215.724 404.073 211.024 379.981L208.224 365.686L196.224 377.982Z" fill="#FCB131"/>
<path d="M4.02071 464.354C7.62076 472.252 8.62078 475.251 7.72076 475.75C4.32071 477.85 9.82079 491.245 21.921 510.439C38.0212 536.131 57.5215 555.925 76.2218 565.622C82.6219 569.021 82.0219 569.22 70.3217 567.721C62.9216 566.821 20.721 564.522 20.221 565.022C20.0209 565.122 22.021 568.421 24.421 572.22C30.0211 581.017 32.3211 585.115 31.0211 584.316C30.4211 584.016 29.7211 585.015 29.3211 586.715C28.4211 590.814 31.9211 598.111 40.3213 609.208C60.8216 636.499 82.7219 656.093 101.522 664.29C112.222 668.889 117.522 670.688 120.722 670.688C122.622 670.688 123.922 670.888 123.722 671.088C123.522 671.388 114.722 672.987 104.322 674.687C93.922 676.386 85.1219 677.986 84.9219 678.286C84.6219 678.585 87.522 681.884 91.322 685.683C97.6221 692.081 98.0221 692.681 96.4221 694.18C92.322 698.379 96.6221 705.677 110.622 718.173C140.023 744.564 163.923 757.76 190.823 762.159C197.324 763.258 203.524 763.758 207.724 763.358L214.324 762.758L209.824 764.358C198.624 768.157 175.223 776.954 174.623 777.554C174.223 777.954 177.323 780.653 181.523 783.652C186.423 787.251 188.523 789.25 187.423 789.45C184.923 789.95 184.323 794.448 186.223 798.147C188.223 801.846 193.824 806.145 205.824 813.342C226.424 825.638 247.424 834.535 264.825 838.234C276.625 840.733 297.625 840.733 308.225 838.234C323.626 834.735 339.126 826.938 343.426 820.64C345.926 817.041 346.726 810.143 344.726 809.443C344.226 809.244 345.726 807.544 348.226 805.745L352.726 802.346L349.526 797.747C347.726 795.248 342.026 788.85 336.826 783.552C315.825 762.459 292.325 753.661 260.825 755.061C253.424 755.361 245.524 755.861 243.324 756.161L239.324 756.76L242.524 755.261C246.924 753.261 250.024 748.163 249.624 743.465C249.324 740.166 249.624 739.566 252.524 737.966C254.324 736.967 255.824 736.067 255.824 735.867C255.824 734.867 248.824 722.071 245.224 716.373C239.324 707.176 226.024 693.681 217.424 687.982C204.824 679.585 193.524 675.786 167.323 670.888C164.323 670.288 163.423 669.888 165.023 669.788C169.423 669.588 175.023 661.291 173.523 657.292C173.123 656.393 173.823 655.693 175.323 655.293C177.623 654.693 177.623 654.693 176.223 649.295C167.823 617.105 148.823 594.113 118.722 579.717C114.122 577.518 111.422 576.018 112.822 576.418C116.022 577.318 126.323 576.918 130.923 575.618C136.323 574.219 139.623 571.22 140.523 566.921C140.923 564.922 141.123 562.923 141.023 562.423C140.923 562.023 141.423 561.723 142.223 561.723C144.623 561.723 144.723 560.623 143.223 551.726C139.423 527.934 130.323 510.039 113.822 494.444C96.2221 477.65 74.4218 467.653 40.0212 460.355C29.1211 458.056 3.2207 453.757 0.220651 453.757C-0.579361 453.757 0.82066 457.656 4.02071 464.354ZM85.5219 569.32C85.2219 569.62 84.3219 569.72 83.6219 569.42C82.8219 569.121 83.1219 568.821 84.2219 568.821C85.3219 568.721 85.9219 569.021 85.5219 569.32Z" fill="#00A651"/>
<path d="M223.124 499.443C198.124 532.133 183.724 560.723 179.224 587.015C177.924 594.313 177.724 600.311 178.224 616.406C178.624 627.502 179.324 639.198 179.924 642.397C181.324 650.195 187.124 660.991 193.324 667.389C197.724 671.988 198.924 672.688 202.224 672.688C207.724 672.688 212.324 670.088 220.024 662.891C231.724 651.794 241.425 636.999 245.625 623.703C247.725 617.105 249.625 607.208 249.525 602.71C249.525 601.31 250.125 595.112 250.825 588.914C252.925 571.82 250.625 550.427 243.825 523.535C241.625 514.938 232.924 487.747 232.424 487.747C232.224 487.747 228.024 493.045 223.124 499.443Z" fill="#EF3F59"/>
<path d="M278.525 576.418C257.425 618.405 249.125 650.295 251.825 678.586C252.325 683.784 252.425 689.382 252.125 690.982C251.725 692.981 251.825 693.781 252.625 693.381C253.225 692.881 253.425 693.381 253.125 694.681C252.425 697.38 255.525 710.775 258.925 719.772C260.525 723.971 264.125 730.669 266.925 734.768C279.725 753.362 286.525 755.661 297.426 744.664C303.226 738.866 310.726 726.87 314.726 717.073C318.526 707.876 321.126 696.98 320.326 693.981C319.926 692.181 320.126 691.681 320.926 692.281C321.726 692.681 321.826 692.581 321.426 691.881C321.026 691.282 321.326 685.883 321.926 679.885C323.926 661.691 320.626 640.698 312.226 617.705C308.526 607.808 290.125 570.02 286.925 565.822L285.025 563.323L278.525 576.418Z" fill="#FCB131"/>
<path d="M342.526 644.496C339.026 667.789 338.426 673.887 338.426 691.681C338.326 711.575 339.026 728.969 339.826 727.67C340.126 727.27 340.426 729.669 340.526 733.068C340.926 746.764 349.026 769.156 358.626 783.352C367.526 796.348 389.126 813.642 396.526 813.642C400.927 813.642 406.527 808.544 409.527 801.846C412.827 794.348 416.127 780.953 415.327 777.954C415.027 776.654 415.127 775.754 415.627 775.954C416.027 776.254 416.527 774.855 416.527 772.855C416.627 770.856 417.027 763.658 417.327 756.96C417.827 749.163 417.627 742.465 416.927 737.966C413.927 720.472 404.827 700.878 391.526 683.084C383.326 672.187 362.926 650.394 350.726 639.698L344.126 633.7L342.526 644.496Z" fill="#333333"/>
<path d="M426.827 723.071C426.827 723.371 428.227 727.07 429.927 731.368C434.927 743.864 435.927 746.863 434.627 746.064C433.927 745.564 433.727 747.063 434.027 750.962C434.527 757.16 442.427 774.555 452.028 790.649C468.228 817.641 489.028 837.734 510.228 846.531C526.129 853.129 546.929 855.828 555.029 852.33C558.929 850.63 562.329 845.632 561.529 842.633C561.229 841.433 561.729 840.633 563.029 840.333C564.829 839.834 564.929 839.234 564.329 832.936C560.329 792.949 542.129 765.857 507.028 747.863C489.328 738.666 471.528 732.768 443.827 726.57C436.427 724.97 429.527 723.371 428.627 723.071C427.627 722.771 426.827 722.771 426.827 723.071Z" fill="#0081C8"/>
<path d="M378.026 817.041C352.626 821.939 327.326 834.635 292.525 860.127L282.625 867.525L285.925 868.924C287.825 869.724 291.125 870.924 293.325 871.624C295.525 872.323 296.825 873.123 296.125 873.323C294.325 873.923 293.425 880.021 294.725 882.52C296.425 885.519 303.725 888.918 316.326 892.417C365.926 906.312 402.827 904.013 431.327 885.119C448.127 874.023 458.628 859.827 453.828 855.029C453.028 854.229 454.128 852.03 457.228 847.831L461.728 841.733L454.028 836.035C444.727 829.337 429.127 821.54 418.827 818.541C409.127 815.841 388.627 815.042 378.026 817.041Z" fill="#EF3F59"/>
<path d="M500.328 859.627C489.028 862.227 483.728 864.126 472.327 869.624C455.427 877.722 437.027 890.617 415.927 909.012L404.526 919.008L411.126 921.108C416.627 922.707 417.627 923.407 416.827 924.607C415.127 927.306 415.727 931.604 418.227 934.103C421.227 937.103 427.727 939.002 445.827 942.301C458.427 944.6 463.127 944.9 481.827 945C500.528 945 504.528 944.8 512.528 942.901C531.728 938.302 546.828 930.405 560.029 917.809C564.229 913.71 569.129 908.212 570.829 905.613C573.529 901.514 573.929 899.914 573.629 895.416C573.429 890.717 573.829 889.418 577.129 884.22C581.529 877.522 582.029 878.421 570.229 871.624C560.529 866.025 547.828 861.127 538.628 859.228C528.228 857.128 510.628 857.228 500.328 859.627Z" fill="#333333"/>
</svg>
