<!-- Generator: Adobe Illustrator 19.1.0, SVG Export Plug-In  -->
<svg version="1.1"
	 xmlns="http://www.w3.org/2000/svg" xmlns:xlink="http://www.w3.org/1999/xlink" xmlns:a="http://ns.adobe.com/AdobeSVGViewerExtensions/3.0/"
	 x="0px" y="0px" width="2239.114px" height="649.734px" viewBox="0 0 2239.114 649.734"
	 style="enable-background:new 0 0 2239.114 649.734;" xml:space="preserve">
<style type="text/css">
	.st0{fill:#AF8D54;}
	.st1{opacity:0.74;fill:#C5AD85;}
	.st2{fill:none;stroke:#875400;stroke-width:15.042;stroke-miterlimit:10;}
	.st3{fill:#679E38;}
	.st4{fill:#3594BA;}
	.st5{fill:#D19D1E;}
	.st6{fill:none;stroke:#875400;stroke-width:8;stroke-miterlimit:10;}
	.st7{fill:#7AC943;}
	.st8{fill:#3FA9F5;}
	.st9{fill:#FFC91F;}
	.st10{fill:#FFA800;}
	.st11{opacity:0.74;fill:#FFC91F;}
	.st12{fill:none;stroke:#CE7F00;stroke-width:15.0382;stroke-miterlimit:10;}
	.st13{fill:none;stroke:#FDDD0B;stroke-width:7;stroke-miterlimit:10;}
	.st14{fill:#9F9C97;}
	.st15{opacity:0.74;fill:#BAB8B5;}
	.st16{fill:none;stroke:#706B64;stroke-width:15.0409;stroke-miterlimit:10;}
	.st17{fill:none;stroke:#706B64;stroke-width:7;stroke-miterlimit:10;}
</style>
<defs>
</defs>
<g>
	<g id="XMLID_46_">
		<circle id="XMLID_50_" class="st0" cx="2023.715" cy="434.945" r="214.787"/>
		<path id="XMLID_49_" class="st1" d="M2024.035,649.734c-65.192,0-123.77-29.061-163.18-74.909
			c20.307-23.646,44.305-46.119,71.17-66.546c103.158-78.369,223.089-104.241,307.089-74.277v0.933
			C2239.114,553.556,2142.656,649.734,2024.035,649.734z"/>
		<path id="XMLID_48_" class="st1" d="M2023.725,649.734c-118.621,0-214.8-96.178-214.8-214.799
			c0-118.621,96.178-214.77,214.8-214.77c17.449,0,34.386,2.076,50.631,6.017c30.114,94.524,26.023,222.08-18.893,351.05
			c-8.785,25.21-18.772,49.428-29.753,72.472C2025.048,649.734,2024.387,649.734,2023.725,649.734z"/>
		<circle id="XMLID_47_" class="st2" cx="2023.715" cy="434.945" r="174.738"/>
	</g>
	<polygon id="XMLID_45_" class="st3" points="1871.162,0 1801,0 1918.214,198.24 1988.376,198.24 	"/>
	<polygon id="XMLID_44_" class="st4" points="1940.692,0 1870.53,0 1987.745,198.24 2057.906,198.24 	"/>
	<polygon id="XMLID_43_" class="st5" points="2010.488,0 1940.326,0 2057.54,198.24 2127.702,198.24 	"/>
	<path id="XMLID_37_" class="st6" d="M2136.587,209.24h-224.946c-3.3,0-6-2.7-6-6v-9.405c0-3.3,2.7-6,6-6h224.946c3.3,0,6,2.7,6,6
		v9.405C2142.587,206.54,2139.887,209.24,2136.587,209.24z"/>
	<path id="XMLID_36_" class="st0" d="M2028.057,239.862h-7.119c-2.498,0-4.542-2.044-4.542-4.542v-26.295
		c0-2.498,2.044-4.542,4.542-4.542h7.119c2.498,0,4.542,2.044,4.542,4.542v26.295
		C2032.599,237.818,2030.555,239.862,2028.057,239.862z"/>
	<polygon id="XMLID_35_" class="st7" points="1987.782,198.24 1917.62,198.24 2012.16,35.322 2082.322,35.322 	"/>
	<polygon id="XMLID_34_" class="st8" points="2057.312,198.24 1987.15,198.24 2081.69,35.322 2151.852,35.322 	"/>
	<polygon id="XMLID_33_" class="st9" points="2127.107,198.24 2056.945,198.24 2151.486,35.322 2221.648,35.322 	"/>
</g>
<g>
	<g id="XMLID_28_">
		<circle id="XMLID_32_" class="st10" cx="222.715" cy="434.945" r="214.787"/>
		<path id="XMLID_31_" class="st11" d="M223.035,649.734c-65.192,0-123.77-29.061-163.18-74.909
			c20.307-23.646,44.305-46.119,71.17-66.546c103.158-78.369,223.089-104.241,307.089-74.277v0.933
			C438.114,553.556,341.656,649.734,223.035,649.734z"/>
		<path id="XMLID_30_" class="st11" d="M222.725,649.734c-118.621,0-214.8-96.178-214.8-214.799
			c0-118.621,96.178-214.77,214.8-214.77c17.449,0,34.386,2.076,50.631,6.017c30.114,94.524,26.023,222.08-18.893,351.05
			c-8.785,25.21-18.772,49.428-29.753,72.472C224.048,649.734,223.387,649.734,222.725,649.734z"/>
		<circle id="XMLID_29_" class="st12" cx="222.715" cy="434.945" r="174.738"/>
	</g>
	<polygon id="XMLID_27_" class="st3" points="70.162,0 0,0 117.214,198.24 187.376,198.24 	"/>
	<polygon id="XMLID_22_" class="st4" points="139.692,0 69.53,0 186.745,198.24 256.907,198.24 	"/>
	<polygon id="XMLID_21_" class="st5" points="209.488,0 139.326,0 256.54,198.24 326.702,198.24 	"/>
	<path id="XMLID_20_" class="st13" d="M335.587,209.24H110.641c-3.3,0-6-2.7-6-6v-9.405c0-3.3,2.7-6,6-6h224.946c3.3,0,6,2.7,6,6
		v9.405C341.587,206.54,338.887,209.24,335.587,209.24z"/>
	<path id="XMLID_19_" class="st10" d="M227.058,239.862h-7.119c-2.498,0-4.542-2.044-4.542-4.542v-26.295
		c0-2.498,2.044-4.542,4.542-4.542h7.119c2.498,0,4.542,2.044,4.542,4.542v26.295C231.599,237.818,229.555,239.862,227.058,239.862z
		"/>
	<polygon id="XMLID_17_" class="st7" points="186.782,198.24 116.62,198.24 211.16,35.322 281.322,35.322 	"/>
	<polygon id="XMLID_15_" class="st8" points="256.312,198.24 186.15,198.24 280.69,35.322 350.852,35.322 	"/>
	<polygon id="XMLID_14_" class="st9" points="326.107,198.24 255.945,198.24 350.486,35.322 420.648,35.322 	"/>
</g>
<g>
	<g id="XMLID_9_">
		<circle id="XMLID_13_" class="st14" cx="1123.73" cy="434.945" r="214.787"/>
		<path id="XMLID_12_" class="st15" d="M1124.043,649.734c-65.192,0-123.766-29.061-163.176-74.909
			c20.307-23.646,44.3-46.119,71.165-66.546c103.158-78.369,223.083-104.241,307.083-74.277v0.933
			C1339.114,553.556,1242.664,649.734,1124.043,649.734z"/>
		<path id="XMLID_11_" class="st15" d="M1123.74,649.734c-118.621,0-214.8-96.178-214.8-214.799
			c0-118.621,96.178-214.77,214.8-214.77c17.449,0,34.386,2.076,50.631,6.017c30.114,94.524,26.023,222.08-18.893,351.05
			c-8.785,25.21-18.772,49.428-29.753,72.472C1125.064,649.734,1124.402,649.734,1123.74,649.734z"/>
		<circle id="XMLID_10_" class="st16" cx="1123.73" cy="434.945" r="174.738"/>
	</g>
	<polygon id="XMLID_8_" class="st3" points="970.428,0 900.266,0 1017.48,198.24 1087.642,198.24 	"/>
	<polygon id="XMLID_7_" class="st4" points="1039.958,0 969.796,0 1087.01,198.24 1157.172,198.24 	"/>
	<polygon id="XMLID_6_" class="st5" points="1109.753,0 1039.591,0 1156.806,198.24 1226.968,198.24 	"/>
	<path id="XMLID_5_" class="st17" d="M1235.853,209.24h-224.946c-3.3,0-6-2.7-6-6v-9.405c0-3.3,2.7-6,6-6h224.946c3.3,0,6,2.7,6,6
		v9.405C1241.853,206.54,1239.152,209.24,1235.853,209.24z"/>
	<path id="XMLID_4_" class="st14" d="M1127.323,239.862h-7.119c-2.498,0-4.542-2.044-4.542-4.542v-26.295
		c0-2.498,2.044-4.542,4.542-4.542h7.119c2.498,0,4.542,2.044,4.542,4.542v26.295
		C1131.865,237.818,1129.821,239.862,1127.323,239.862z"/>
	<polygon id="XMLID_3_" class="st7" points="1087.047,198.24 1016.885,198.24 1111.426,35.322 1181.588,35.322 	"/>
	<polygon id="XMLID_2_" class="st8" points="1156.578,198.24 1086.416,198.24 1180.956,35.322 1251.118,35.322 	"/>
	<polygon id="XMLID_1_" class="st9" points="1226.373,198.24 1156.211,198.24 1250.751,35.322 1320.913,35.322 	"/>
</g>
</svg>