<svg width="580" height="945" viewBox="0 0 580 945" fill="none" xmlns="http://www.w3.org/2000/svg">
<path d="M296.675 8.30029C358.176 38.1907 382.876 65.0821 389.676 109.868C392.076 125.163 391.376 143.857 388.476 143.857C387.676 143.857 387.276 144.257 387.576 144.657C387.876 145.156 386.676 146.356 384.876 147.456C377.976 151.554 358.476 148.355 344.376 140.758C325.475 130.661 308.975 112.767 298.575 91.2737C293.775 81.3769 286.975 62.6829 287.575 61.1833C287.875 60.4836 287.575 59.8837 287.075 59.8837C286.475 59.8837 286.175 58.984 286.475 57.8844C286.775 56.6848 286.575 56.085 285.975 56.4848C285.375 56.8847 285.175 56.3849 285.675 54.9853C286.075 53.6857 285.875 52.886 285.175 52.886C284.475 52.886 284.275 52.0862 284.675 50.7867C285.175 49.3871 285.075 48.8873 284.275 49.2871C283.675 49.687 283.375 49.3871 283.775 48.5874C284.075 47.7876 283.575 44.2888 282.675 40.7899C280.775 33.4922 275.275 3.60179 275.675 3.10195C275.875 2.90202 277.075 3.30189 278.375 3.9017C280.275 4.90138 280.475 4.90137 279.375 3.80173C278.075 2.40218 277.775 -0.0970256 278.875 0.00294231C279.375 0.00294231 287.275 3.70176 296.675 8.30029Z" fill="#0081C8"/>
<path d="M446.877 45.5884C464.177 79.3775 471.377 101.77 473.677 128.862C474.177 135.46 472.977 151.554 471.577 157.353C471.177 159.052 471.277 159.052 472.177 157.852C473.377 156.153 472.877 160.152 470.577 170.748C466.577 188.742 454.277 209.636 444.877 214.534C438.577 217.733 429.977 213.335 421.677 202.738C413.776 192.741 405.276 170.848 404.876 159.652C404.776 157.153 404.476 155.153 404.176 155.353C403.376 155.853 402.676 144.457 402.776 130.361C402.776 112.767 406.676 94.9725 415.377 72.8796C419.077 63.4826 436.277 27.894 437.177 27.894C437.477 27.894 441.877 35.8915 446.877 45.5884Z" fill="#FCB131"/>
<path d="M313.675 131.261C347.576 142.557 365.176 151.255 384.677 166.35C410.377 186.243 423.277 210.536 424.877 242.026C425.477 253.122 425.377 253.822 423.577 253.922C422.577 253.922 422.177 254.222 422.777 254.422C424.477 255.121 423.277 259.42 420.677 262.219C417.277 265.818 411.177 267.117 401.177 266.318C396.477 265.918 391.777 265.118 390.677 264.618C388.877 263.719 388.877 263.719 390.177 265.018C390.977 265.818 395.477 269.417 400.177 273.016C435.577 300.307 454.578 326.398 460.078 355.789C462.378 367.785 461.478 404.373 458.778 409.572C456.678 413.57 452.177 415.97 446.577 415.97C440.977 415.97 436.777 414.57 425.877 409.072C405.177 398.875 396.177 390.378 387.177 372.684C383.777 366.086 379.876 357.688 378.576 353.99C374.676 343.693 369.976 323 370.776 319.501C371.076 317.901 370.976 316.802 370.576 317.101C370.076 317.401 369.676 316.002 369.576 314.002C369.576 311.903 368.776 303.906 367.876 296.108C366.976 288.311 366.176 277.314 366.076 271.616C365.976 260.62 365.076 252.522 363.976 253.022C362.676 253.622 350.276 243.725 343.476 236.427C331.976 224.331 322.476 209.036 313.875 188.843C306.775 172.048 302.875 159.352 303.475 155.253C303.875 152.854 302.875 147.856 300.275 138.859C298.175 131.661 296.775 125.863 297.075 125.963C297.375 125.963 304.875 128.362 313.675 131.261Z" fill="#EF3F59"/>
<path d="M509.378 184.044C510.778 188.043 512.478 193.041 513.178 195.14C513.778 197.14 514.678 198.639 515.178 198.339C515.578 198.039 517.178 202.938 518.678 209.136C530.678 259.32 527.678 294.808 508.978 323.299C503.878 331.097 489.678 346.292 488.378 345.392C487.878 345.092 484.678 346.892 481.178 349.391C477.677 351.79 474.277 353.79 473.677 353.79C471.877 353.79 462.077 338.095 458.177 328.898C451.477 313.203 450.677 309.104 450.677 290.81C450.777 273.415 451.377 269.417 456.777 254.521C461.477 241.126 472.277 221.832 483.478 206.337C488.078 199.939 502.878 181.145 505.678 178.046C506.678 176.946 507.378 178.246 509.378 184.044Z" fill="#EF3F59"/>
<path d="M563.68 313.702C563.28 315.002 563.48 316.501 564.18 317.301C566.68 320.4 562.28 358.288 556.68 381.581C555.28 387.279 554.48 392.477 554.88 392.977C555.18 393.677 554.98 393.777 554.28 393.377C553.38 392.777 553.28 393.377 553.78 395.376C554.28 397.276 554.18 397.875 553.38 397.376C552.68 396.976 552.38 397.176 552.78 398.075C553.98 401.374 543.079 426.166 535.379 437.463C518.079 462.955 484.179 482.648 472.878 473.751C469.978 471.452 466.578 463.554 467.678 461.655C468.278 460.855 468.078 460.655 467.178 461.255C466.178 461.855 465.978 461.455 466.478 459.756C466.778 458.456 466.478 453.158 465.678 447.859C460.778 415.67 469.578 388.278 493.079 362.687C505.179 349.391 526.079 333.496 549.279 319.8C563.98 311.103 564.68 310.803 563.68 313.702Z" fill="#0081C8"/>
<path d="M383.776 377.982C412.477 407.472 429.277 433.764 437.477 462.255C440.077 471.252 440.577 502.942 438.477 517.637C436.277 532.832 434.577 537.631 429.577 542.629C425.277 546.928 425.177 546.928 419.277 546.528C414.377 546.228 412.277 545.328 406.577 541.629C397.976 536.031 385.776 524.135 380.176 515.838C377.776 512.339 374.376 505.941 372.576 501.742C368.976 493.445 363.676 473.451 364.576 471.252C364.776 470.552 364.376 465.454 363.476 460.056C362.376 452.758 362.176 445.76 362.576 432.264C363.076 413.57 364.276 404.073 368.976 379.981L371.776 365.686L383.776 377.982Z" fill="#FCB131"/>
<path d="M575.979 464.354C572.379 472.252 571.379 475.251 572.279 475.75C575.679 477.85 570.179 491.245 558.079 510.439C541.979 536.131 522.478 555.925 503.778 565.622C497.378 569.021 497.978 569.22 509.678 567.721C517.078 566.821 559.279 564.522 559.779 565.022C559.979 565.122 557.979 568.421 555.579 572.22C549.979 581.017 547.679 585.115 548.979 584.316C549.579 584.016 550.279 585.015 550.679 586.715C551.579 590.814 548.079 598.111 539.679 609.208C519.178 636.499 497.278 656.093 478.478 664.29C467.778 668.889 462.478 670.688 459.278 670.688C457.378 670.688 456.078 670.888 456.278 671.088C456.478 671.388 465.278 672.987 475.678 674.687C486.078 676.386 494.878 677.986 495.078 678.286C495.378 678.585 492.478 681.884 488.678 685.683C482.378 692.081 481.978 692.681 483.578 694.18C487.678 698.379 483.378 705.677 469.378 718.173C439.977 744.564 416.077 757.76 389.177 762.159C382.676 763.258 376.476 763.758 372.276 763.358L365.676 762.758L370.176 764.358C381.376 768.157 404.777 776.954 405.377 777.554C405.777 777.954 402.677 780.653 398.477 783.652C393.577 787.251 391.477 789.25 392.577 789.45C395.077 789.95 395.677 794.448 393.777 798.147C391.777 801.846 386.176 806.145 374.176 813.342C353.576 825.638 332.576 834.535 315.175 838.234C303.375 840.733 282.375 840.733 271.775 838.234C256.374 834.735 240.874 826.938 236.574 820.64C234.074 817.041 233.274 810.143 235.274 809.443C235.774 809.244 234.274 807.544 231.774 805.745L227.274 802.346L230.474 797.747C232.274 795.248 237.974 788.85 243.174 783.552C264.175 762.459 287.675 753.661 319.175 755.061C326.576 755.361 334.476 755.861 336.676 756.161L340.676 756.76L337.476 755.261C333.076 753.261 329.976 748.163 330.376 743.465C330.676 740.166 330.376 739.566 327.476 737.966C325.676 736.967 324.176 736.067 324.176 735.867C324.176 734.867 331.176 722.071 334.776 716.373C340.676 707.176 353.976 693.681 362.576 687.982C375.176 679.585 386.476 675.786 412.677 670.888C415.677 670.288 416.577 669.888 414.977 669.788C410.577 669.588 404.977 661.291 406.477 657.292C406.877 656.393 406.177 655.693 404.677 655.293C402.377 654.693 402.377 654.693 403.777 649.295C412.177 617.105 431.177 594.113 461.278 579.717C465.878 577.518 468.578 576.018 467.178 576.418C463.978 577.318 453.677 576.918 449.077 575.618C443.677 574.219 440.377 571.22 439.477 566.921C439.077 564.922 438.877 562.923 438.977 562.423C439.077 562.023 438.577 561.723 437.777 561.723C435.377 561.723 435.277 560.623 436.777 551.726C440.577 527.934 449.677 510.039 466.178 494.444C483.778 477.65 505.578 467.653 539.979 460.355C550.879 458.056 576.779 453.757 579.779 453.757C580.579 453.757 579.179 457.656 575.979 464.354ZM494.478 569.32C494.778 569.62 495.678 569.72 496.378 569.42C497.178 569.121 496.878 568.821 495.778 568.821C494.678 568.721 494.078 569.021 494.478 569.32Z" fill="#00A651"/>
<path d="M356.876 499.443C381.876 532.133 396.276 560.723 400.776 587.015C402.076 594.313 402.276 600.311 401.776 616.406C401.376 627.502 400.676 639.198 400.076 642.397C398.676 650.195 392.876 660.991 386.676 667.389C382.276 671.988 381.076 672.688 377.776 672.688C372.276 672.688 367.676 670.088 359.976 662.891C348.276 651.794 338.575 636.999 334.375 623.703C332.275 617.105 330.375 607.208 330.475 602.71C330.475 601.31 329.875 595.112 329.175 588.914C327.075 571.82 329.375 550.427 336.175 523.535C338.375 514.938 347.076 487.747 347.576 487.747C347.776 487.747 351.976 493.045 356.876 499.443Z" fill="#EF3F59"/>
<path d="M301.475 576.418C322.575 618.405 330.875 650.295 328.175 678.586C327.675 683.784 327.575 689.382 327.875 690.982C328.275 692.981 328.175 693.781 327.375 693.381C326.775 692.881 326.575 693.381 326.875 694.681C327.575 697.38 324.475 710.775 321.075 719.772C319.475 723.971 315.875 730.669 313.075 734.768C300.275 753.362 293.475 755.661 282.574 744.664C276.774 738.866 269.274 726.87 265.274 717.073C261.474 707.876 258.874 696.98 259.674 693.981C260.074 692.181 259.874 691.681 259.074 692.281C258.274 692.681 258.174 692.581 258.574 691.881C258.974 691.282 258.674 685.883 258.074 679.885C256.074 661.691 259.374 640.698 267.774 617.705C271.474 607.808 289.875 570.02 293.075 565.822L294.975 563.323L301.475 576.418Z" fill="#FCB131"/>
<path d="M237.474 644.496C240.974 667.789 241.574 673.887 241.574 691.681C241.674 711.575 240.974 728.969 240.174 727.67C239.874 727.27 239.574 729.669 239.474 733.068C239.074 746.764 230.974 769.156 221.374 783.352C212.474 796.348 190.874 813.642 183.474 813.642C179.074 813.642 173.473 808.544 170.473 801.846C167.173 794.348 163.873 780.953 164.673 777.954C164.973 776.654 164.873 775.754 164.373 775.954C163.973 776.254 163.473 774.855 163.473 772.855C163.373 770.856 162.973 763.658 162.673 756.96C162.173 749.163 162.373 742.465 163.073 737.966C166.073 720.472 175.173 700.878 188.474 683.084C196.674 672.187 217.074 650.394 229.274 639.698L235.874 633.7L237.474 644.496Z" fill="#333333"/>
<path d="M153.174 723.071C153.174 723.371 151.774 727.07 150.074 731.368C145.074 743.864 144.074 746.863 145.374 746.064C146.074 745.564 146.274 747.063 145.974 750.962C145.474 757.16 137.574 774.555 127.973 790.649C111.773 817.641 90.9729 837.734 69.7726 846.531C53.8724 853.129 33.072 855.828 24.9719 852.33C21.0719 850.63 17.6718 845.632 18.4718 842.633C18.7718 841.433 18.2718 840.633 16.9718 840.333C15.1718 839.834 15.0718 839.234 15.6718 832.936C19.6719 792.949 37.8721 765.857 72.9726 747.863C90.6729 738.666 108.473 732.768 136.174 726.57C143.574 724.97 150.474 723.371 151.374 723.071C152.374 722.771 153.174 722.771 153.174 723.071Z" fill="#0081C8"/>
<path d="M201.974 817.041C227.374 821.939 252.674 834.635 287.475 860.127L297.375 867.525L294.075 868.924C292.175 869.724 288.875 870.924 286.675 871.624C284.475 872.323 283.175 873.123 283.875 873.323C285.675 873.923 286.575 880.021 285.275 882.52C283.575 885.519 276.275 888.918 263.674 892.417C214.074 906.312 177.173 904.013 148.673 885.119C131.873 874.023 121.372 859.827 126.172 855.029C126.972 854.229 125.872 852.03 122.772 847.831L118.272 841.733L125.972 836.035C135.273 829.337 150.873 821.54 161.173 818.541C170.873 815.841 191.373 815.042 201.974 817.041Z" fill="#EF3F59"/>
<path d="M79.6722 859.627C90.9724 862.227 96.2725 864.126 107.673 869.624C124.573 877.722 142.973 890.617 164.073 909.012L175.474 919.008L168.874 921.108C163.373 922.707 162.373 923.407 163.173 924.607C164.873 927.306 164.273 931.604 161.773 934.103C158.773 937.103 152.273 939.002 134.173 942.301C121.573 944.6 116.873 944.9 98.1725 945C79.4722 945 75.4722 944.8 67.472 942.901C48.2718 938.302 33.1715 930.405 19.9713 917.809C15.7713 913.71 10.8712 908.212 9.17118 905.613C6.47114 901.514 6.07113 899.914 6.37114 895.416C6.57114 890.717 6.17113 889.418 2.87108 884.22C-1.52898 877.522 -2.02899 878.421 9.77119 871.624C19.4713 866.025 32.1715 861.127 41.3717 859.228C51.7718 857.128 69.3721 857.228 79.6722 859.627Z" fill="#333333"/>
</svg>
